<?xml version="1.0" encoding="UTF-8" standalone="no"?>
<!DOCTYPE svg PUBLIC "-//W3C//DTD SVG 1.1//EN" "http://www.w3.org/Graphics/SVG/1.1/DTD/svg11.dtd">
<svg width="100%" height="100%" viewBox="0 0 1008 201" version="1.1" xmlns="http://www.w3.org/2000/svg" xmlns:xlink="http://www.w3.org/1999/xlink" xml:space="preserve" xmlns:serif="http://www.serif.com/" style="fill-rule:evenodd;clip-rule:evenodd;stroke-linejoin:round;stroke-miterlimit:2;">
    <g id="Artboard1" transform="matrix(0.81245,0,0,0.561373,0,0)">
        <rect x="0" y="0" width="1240.17" height="356.993" style="fill:none;"/>
        <g id="Layer-1" serif:id="Layer 1" transform="matrix(5.12852,0,0,7.42228,-0.046541,1.85113)">
            <g transform="matrix(-0.966971,0.254885,0.254885,0.966971,17.9272,37.5326)">
                <path d="M6.333,-9.626C8.311,-11.222 10.195,-12.892 12.028,-14.595C12.855,-8.325 10.888,-1.837 6.333,2.949C1.946,2.034 -2.253,0.743 -6.218,-0.924C-1.894,-3.492 2.304,-6.381 6.333,-9.626" style="fill:rgb(89,74,66);fill-rule:nonzero;"/>
            </g>
            <g transform="matrix(-0.254826,-0.966987,-0.966987,0.254826,8.5698,9.84197)">
                <path d="M-1.864,-9.015C0.117,-10.61 1.996,-12.279 3.83,-13.981C4.657,-7.711 2.692,-1.226 -1.864,3.562C-6.25,2.645 -10.445,1.356 -14.41,-0.312C-10.091,-2.882 -5.891,-5.771 -1.864,-9.015" style="fill:rgb(155,133,121);fill-rule:nonzero;"/>
            </g>
            <g transform="matrix(0.966918,-0.255088,-0.255088,-0.966918,39.2518,16.6462)">
                <path d="M-1.249,-0.821C0.73,-2.416 2.61,-4.086 4.443,-5.788C5.267,0.482 3.305,6.972 -1.249,11.755C-5.636,10.842 -9.833,9.556 -13.796,7.886C-9.475,5.314 -5.277,2.425 -1.249,-0.821" style="fill:rgb(64,63,65);fill-rule:nonzero;"/>
            </g>
            <g transform="matrix(0.255014,0.966937,0.966937,-0.255014,29.4567,31.1693)">
                <path d="M6.946,-1.435C8.923,-3.029 10.803,-4.698 12.639,-6.403C13.464,-0.13 11.499,6.357 6.946,11.141C2.56,10.227 -1.639,8.94 -5.601,7.271C-1.282,4.701 2.915,1.812 6.946,-1.435" style="fill:rgb(108,110,112);fill-rule:nonzero;"/>
            </g>
            <g transform="matrix(1,0,0,1,12.6891,23.7302)">
                <path d="M0,0.146C-0.048,0.087 -0.098,0.025 -0.146,-0.034C-2.769,-3.442 -5.084,-7.17 -7.089,-11.178C-7.582,-10.381 -8.046,-9.553 -8.439,-8.672C-10.104,-4.952 -10.595,-1.012 -10.113,2.755C-7.906,3.935 -5.659,5.07 -3.339,6.109C1.384,8.22 6.179,9.943 11.015,11.324C11.074,11.277 11.135,11.226 11.194,11.181C7.002,8.07 3.269,4.357 0,0.146" style="fill:rgb(113,101,88);fill-rule:nonzero;"/>
            </g>
            <g transform="matrix(1,0,0,1,35.0582,45.3216)">
                <path d="M0,-21.422C-0.046,-21.483 -0.095,-21.543 -0.143,-21.604C-3.254,-17.412 -6.964,-13.682 -11.175,-10.41C-11.234,-10.365 -11.295,-10.315 -11.354,-10.268C-14.763,-7.645 -18.494,-5.326 -22.503,-3.323C-21.706,-2.829 -20.88,-2.366 -20,-1.974C-16.276,-0.308 -12.338,0.182 -8.569,-0.298C-7.39,-2.509 -6.255,-4.752 -5.218,-7.07C-3.105,-11.795 -1.383,-16.59 0,-21.422" style="fill:rgb(128,130,133);fill-rule:nonzero;"/>
            </g>
            <g transform="matrix(1,0,0,1,32.5406,21.7222)">
                <path d="M0,-17.473C-3.721,-19.137 -7.659,-19.627 -11.428,-19.147C-12.606,-16.94 -13.741,-14.698 -14.778,-12.375C-16.89,-7.655 -18.612,-2.858 -19.997,1.974C-19.949,2.033 -19.899,2.095 -19.852,2.154C-16.743,-2.037 -13.029,-5.768 -8.819,-9.037C-8.76,-9.084 -8.699,-9.135 -8.64,-9.182C-5.234,-11.807 -1.504,-14.121 2.505,-16.123C1.707,-16.618 0.881,-17.08 0,-17.473" style="fill:rgb(194,181,155);fill-rule:nonzero;"/>
            </g>
            <g transform="matrix(1,0,0,1,45.024,26.4766)">
                <path d="M0,-5.368C-2.206,-6.546 -4.45,-7.681 -6.771,-8.718C-11.493,-10.829 -16.289,-12.552 -21.123,-13.936C-21.183,-13.889 -21.243,-13.839 -21.303,-13.792C-17.111,-10.68 -13.378,-6.97 -10.108,-2.759C-10.061,-2.698 -10.012,-2.638 -9.966,-2.577C-7.341,0.827 -5.025,4.56 -3.023,8.568C-2.529,7.769 -2.068,6.945 -1.674,6.064C-0.009,2.341 0.482,-1.598 0,-5.368" style="fill:rgb(88,89,91);fill-rule:nonzero;"/>
            </g>
            <g transform="matrix(1,0,0,1,60.8853,16.2347)">
                <path d="M0,11.953C-1.451,11.953 -2.366,11.504 -2.694,11.314C-2.902,10.933 -3.127,9.708 -3.161,8.895C-3.075,8.774 -2.815,8.74 -2.747,8.844C-2.487,9.724 -1.779,11.418 0.225,11.418C1.675,11.418 2.384,10.468 2.384,9.432C2.384,8.671 2.228,7.825 0.967,7.013L-0.674,5.942C-1.537,5.372 -2.539,4.388 -2.539,2.972C-2.539,1.33 -1.261,0 0.984,0C1.52,0 2.142,0.103 2.591,0.224C2.815,0.294 3.057,0.328 3.195,0.328C3.351,0.743 3.506,1.71 3.506,2.435C3.438,2.539 3.161,2.591 3.074,2.487C2.85,1.658 2.384,0.536 0.726,0.536C-0.968,0.536 -1.33,1.658 -1.33,2.453C-1.33,3.455 -0.501,4.181 0.138,4.577L1.52,5.441C2.608,6.115 3.679,7.116 3.679,8.758C3.679,10.657 2.245,11.953 0,11.953" style="fill:white;fill-rule:nonzero;"/>
            </g>
            <g transform="matrix(1,0,0,1,66.315,26.4257)">
                <path d="M0,-3.61C-0.26,-4.249 -0.415,-4.801 -1.037,-4.888L-1.382,-4.94C-1.485,-5.078 -1.469,-5.32 -1.33,-5.372C-0.898,-5.338 -0.294,-5.32 0.293,-5.32C0.76,-5.32 1.105,-5.338 1.692,-5.372C1.813,-5.302 1.831,-5.026 1.71,-4.94L1.502,-4.905C0.967,-4.819 0.949,-4.733 1.122,-4.214C1.52,-3.022 2.021,-1.813 2.418,-0.916C2.573,-0.57 2.643,-0.415 2.694,-0.363C2.764,-0.415 2.884,-0.656 3.022,-1.019C3.247,-1.606 3.834,-3.109 4.007,-3.558C4.249,-4.163 4.318,-4.525 4.318,-4.629C4.318,-4.785 4.214,-4.853 4.007,-4.888L3.609,-4.94C3.506,-5.061 3.523,-5.302 3.645,-5.372C4.18,-5.338 4.611,-5.32 4.939,-5.32C5.371,-5.32 5.665,-5.338 6.148,-5.372C6.27,-5.302 6.287,-5.044 6.184,-4.94L5.924,-4.905C5.319,-4.819 5.164,-4.37 4.663,-3.403C4.422,-2.936 3.351,-0.431 3.074,0.277C2.901,0.708 2.729,1.106 2.504,1.693C2.47,1.744 2.4,1.762 2.331,1.762C2.245,1.762 2.159,1.744 2.107,1.693C1.969,1.209 1.71,0.536 1.45,-0.103L0,-3.61Z" style="fill:white;fill-rule:nonzero;"/>
            </g>
            <g transform="matrix(1,0,0,1,75.4088,26.0479)">
                <path d="M0,-3.077C1.278,-3.077 1.658,-3.145 1.797,-3.25C1.849,-3.284 1.9,-3.353 1.9,-3.578C1.9,-4.061 1.572,-4.666 0.57,-4.666C-0.449,-4.666 -1.33,-3.733 -1.347,-3.163C-1.347,-3.129 -1.347,-3.077 -1.227,-3.077L0,-3.077ZM-1.07,-2.558C-1.52,-2.558 -1.537,-2.524 -1.537,-2.092C-1.537,-0.348 -0.518,1.138 1.33,1.138C1.9,1.138 2.384,0.965 2.919,0.291C3.092,0.239 3.213,0.344 3.23,0.499C2.66,1.673 1.417,2.106 0.519,2.106C-0.604,2.106 -1.485,1.621 -1.986,0.965C-2.504,0.291 -2.712,-0.52 -2.712,-1.28C-2.712,-3.405 -1.312,-5.183 0.761,-5.183C2.246,-5.183 3.213,-4.165 3.213,-3.129C3.213,-2.887 3.179,-2.749 3.144,-2.68C3.092,-2.576 2.851,-2.558 2.125,-2.558L-1.07,-2.558Z" style="fill:white;fill-rule:nonzero;"/>
            </g>
            <g transform="matrix(1,0,0,1,80.4635,25.6313)">
                <path d="M0,-2.677C0,-3.351 0,-3.438 -0.467,-3.748L-0.622,-3.852C-0.691,-3.921 -0.691,-4.111 -0.604,-4.162C-0.208,-4.301 0.777,-4.75 1.122,-5.009C1.191,-5.009 1.278,-4.975 1.312,-4.888C1.278,-4.491 1.278,-4.232 1.278,-4.076C1.278,-3.973 1.347,-3.886 1.468,-3.886C2.193,-4.335 3.005,-4.767 3.886,-4.767C5.319,-4.767 5.907,-3.782 5.907,-2.625L5.907,0.345C5.907,1.589 5.941,1.761 6.563,1.848L6.943,1.9C7.064,1.986 7.029,2.28 6.909,2.332C6.391,2.298 5.89,2.28 5.285,2.28C4.663,2.28 4.146,2.298 3.679,2.332C3.558,2.28 3.523,1.986 3.645,1.9L3.973,1.848C4.611,1.745 4.629,1.589 4.629,0.345L4.629,-2.228C4.629,-3.213 4.18,-3.939 3.005,-3.939C2.349,-3.939 1.778,-3.661 1.537,-3.333C1.312,-3.04 1.278,-2.798 1.278,-2.297L1.278,0.345C1.278,1.589 1.312,1.745 1.935,1.848L2.245,1.9C2.366,1.986 2.331,2.28 2.211,2.332C1.744,2.298 1.243,2.28 0.639,2.28C0.017,2.28 -0.501,2.298 -0.985,2.332C-1.105,2.28 -1.141,1.986 -1.02,1.9L-0.656,1.848C-0.018,1.761 0,1.589 0,0.345L0,-2.677Z" style="fill:white;fill-rule:nonzero;"/>
            </g>
            <g transform="matrix(1,0,0,1,92.6168,27.843)">
                <path d="M0,-6.668C0.155,-6.288 0.276,-5.735 0.276,-5.269C0.207,-5.148 -0.052,-5.113 -0.138,-5.217C-0.432,-5.978 -0.95,-6.479 -1.658,-6.479C-2.332,-6.479 -2.764,-6.046 -2.764,-5.425C-2.764,-4.716 -2.038,-4.336 -1.434,-3.991C-0.518,-3.473 0.328,-2.886 0.328,-1.659C0.328,-0.346 -0.881,0.311 -2.159,0.311C-2.971,0.311 -3.575,0.138 -4.007,-0.208C-4.146,-0.536 -4.249,-1.383 -4.215,-1.952C-4.128,-2.057 -3.903,-2.073 -3.817,-1.97C-3.523,-1.02 -2.971,-0.19 -1.986,-0.19C-1.364,-0.19 -0.829,-0.554 -0.829,-1.296C-0.829,-2.091 -1.52,-2.522 -2.159,-2.886C-3.161,-3.455 -3.869,-4.06 -3.869,-5.01C-3.869,-6.271 -2.833,-6.979 -1.52,-6.979C-0.794,-6.979 -0.155,-6.807 0,-6.668" style="fill:white;fill-rule:nonzero;"/>
            </g>
            <g transform="matrix(1,0,0,1,94.8795,25.3552)">
                <path d="M0,-7.186C0,-8.205 -0.017,-8.308 -0.535,-8.62L-0.708,-8.723C-0.794,-8.775 -0.794,-9.017 -0.708,-9.069C-0.276,-9.207 0.536,-9.465 1.157,-9.794C1.227,-9.794 1.296,-9.759 1.33,-9.69C1.313,-9.172 1.278,-8.308 1.278,-7.548L1.278,-1.624C1.278,-1.399 1.296,-1.365 1.59,-1.365C1.97,-1.365 2.298,-1.555 2.764,-2.039L3.472,-2.798C3.956,-3.317 4.077,-3.506 4.077,-3.593C4.077,-3.679 3.99,-3.731 3.696,-3.766L3.282,-3.818C3.127,-3.87 3.127,-4.198 3.282,-4.249L3.68,-4.249C4.439,-4.249 5.459,-4.284 6.426,-4.387C6.547,-4.335 6.564,-4.042 6.46,-3.956L5.907,-3.852C5.562,-3.783 5.269,-3.61 4.819,-3.248C4.146,-2.712 3.559,-2.09 3.248,-1.796C3.04,-1.607 3.023,-1.52 3.127,-1.382C3.42,-0.985 3.696,-0.657 4.284,0C4.958,0.759 5.562,1.433 5.907,1.761C6.149,1.986 6.495,2.089 6.806,2.142L7.048,2.176C7.169,2.262 7.151,2.556 7.013,2.608C6.512,2.574 5.925,2.556 5.372,2.556C4.682,2.556 4.077,2.574 3.576,2.608C3.438,2.539 3.42,2.246 3.541,2.176L3.853,2.125C4.111,2.089 4.284,2.055 4.284,1.952C4.284,1.848 4.215,1.727 3.99,1.468L2.143,-0.674C1.986,-0.846 1.797,-0.915 1.606,-0.915C1.296,-0.915 1.278,-0.864 1.278,-0.329L1.278,0.622C1.278,1.865 1.313,2.038 1.935,2.125L2.35,2.176C2.471,2.262 2.436,2.556 2.314,2.608C1.745,2.574 1.244,2.556 0.64,2.556C0.018,2.556 -0.501,2.574 -1.019,2.608C-1.14,2.556 -1.174,2.262 -1.036,2.176L-0.656,2.125C-0.017,2.038 0,1.865 0,0.622L0,-7.186Z" style="fill:white;fill-rule:nonzero;"/>
            </g>
            <g transform="matrix(1,0,0,1,107.666,26.305)">
                <path d="M0,-7.963C-0.397,-8.93 -0.657,-9.293 -1.399,-9.379L-1.711,-9.414C-1.831,-9.518 -1.814,-9.759 -1.676,-9.846C-1.175,-9.811 -0.622,-9.794 0.12,-9.794C0.881,-9.794 1.485,-9.811 2.211,-9.846C2.331,-9.776 2.366,-9.518 2.245,-9.414L1.986,-9.379C1.329,-9.293 1.191,-9.19 1.174,-9.051C1.209,-8.878 1.502,-7.945 2.038,-6.633C2.832,-4.629 3.627,-2.643 4.49,-0.674C5.026,-1.814 5.751,-3.593 6.148,-4.508C6.649,-5.683 7.462,-7.635 7.755,-8.377C7.894,-8.74 7.91,-8.93 7.91,-9.051C7.91,-9.172 7.738,-9.31 7.133,-9.379L6.822,-9.414C6.701,-9.518 6.736,-9.776 6.856,-9.846C7.341,-9.811 7.997,-9.794 8.653,-9.794C9.224,-9.794 9.759,-9.811 10.329,-9.846C10.449,-9.776 10.449,-9.5 10.363,-9.414L9.845,-9.379C9.431,-9.345 9.172,-9.138 8.947,-8.775C8.463,-7.963 7.79,-6.564 7.013,-4.802L6.08,-2.677C5.389,-1.088 4.577,0.915 4.283,1.831C4.231,1.865 4.162,1.883 4.093,1.883C4.007,1.883 3.921,1.865 3.834,1.831C3.645,1.105 3.333,0.259 3.04,-0.466L0,-7.963Z" style="fill:white;fill-rule:nonzero;"/>
            </g>
            <g transform="matrix(1,0,0,1,121.06,27.2722)">
                <path d="M0,-8.896C0,-9.379 0.38,-9.777 0.881,-9.777C1.382,-9.777 1.71,-9.362 1.71,-8.964C1.71,-8.429 1.382,-8.032 0.881,-8.032C0.397,-8.032 0.017,-8.36 0,-8.896M-0.984,0.104C-0.64,0.104 -0.104,-0.156 0.069,-0.328C0.276,-0.536 0.276,-0.777 0.293,-1.14L0.328,-2.159C0.328,-2.349 0.259,-2.383 0.155,-2.383C0.052,-2.383 -0.242,-2.315 -0.553,-2.21C-1.572,-1.866 -2.073,-1.606 -2.073,-0.933C-2.073,-0.639 -1.865,0.104 -0.984,0.104M-2.988,-8.878C-3.006,-9.379 -2.643,-9.777 -2.142,-9.777C-1.642,-9.777 -1.278,-9.362 -1.278,-8.948C-1.278,-8.412 -1.642,-8.032 -2.142,-8.032C-2.626,-8.032 -2.971,-8.343 -2.988,-8.878M0.086,-2.936C0.346,-3.023 0.38,-3.178 0.38,-3.437L0.397,-4.232C0.414,-4.871 0.207,-5.735 -0.864,-5.735C-1.348,-5.735 -1.935,-5.493 -1.97,-4.958C-1.986,-4.681 -2.004,-4.474 -2.142,-4.37C-2.401,-4.163 -2.867,-4.042 -3.127,-4.042C-3.282,-4.042 -3.368,-4.128 -3.368,-4.284C-3.368,-5.182 -1.417,-6.408 -0.155,-6.408C1.088,-6.408 1.692,-5.683 1.641,-4.387L1.537,-1.381C1.503,-0.587 1.658,0.121 2.332,0.121C2.504,0.121 2.66,0.069 2.764,0.017C2.85,-0.035 2.937,-0.104 2.988,-0.104C3.057,-0.104 3.109,0 3.109,0.121C3.109,0.208 2.504,0.881 1.658,0.881C1.243,0.881 0.829,0.725 0.535,0.345C0.466,0.242 0.362,0.104 0.259,0.104C0.138,0.104 -0.069,0.259 -0.415,0.449C-0.795,0.657 -1.175,0.881 -1.658,0.881C-2.159,0.881 -2.574,0.743 -2.867,0.484C-3.195,0.19 -3.403,-0.242 -3.403,-0.725C-3.403,-1.399 -3.075,-1.796 -1.97,-2.194L0.086,-2.936Z" style="fill:white;fill-rule:nonzero;"/>
            </g>
            <g transform="matrix(1,0,0,1,125.902,25.6313)">
                <path d="M0,-2.677C0,-3.351 0,-3.438 -0.467,-3.748L-0.622,-3.852C-0.691,-3.921 -0.691,-4.111 -0.604,-4.162C-0.208,-4.301 0.708,-4.75 1.14,-5.009C1.226,-4.991 1.278,-4.957 1.278,-4.888L1.278,-3.886C1.278,-3.8 1.295,-3.748 1.33,-3.731C1.935,-4.232 2.591,-4.767 3.229,-4.767C3.661,-4.767 4.007,-4.491 4.007,-4.076C4.007,-3.506 3.541,-3.281 3.265,-3.281C3.092,-3.281 3.005,-3.333 2.884,-3.403C2.625,-3.575 2.366,-3.679 2.124,-3.679C1.848,-3.679 1.641,-3.524 1.502,-3.333C1.33,-3.092 1.278,-2.591 1.278,-2.003L1.278,0.345C1.278,1.589 1.312,1.797 1.969,1.848L2.591,1.9C2.712,1.986 2.677,2.28 2.556,2.332C1.744,2.298 1.243,2.28 0.639,2.28C0.017,2.28 -0.501,2.298 -0.95,2.332C-1.071,2.28 -1.105,1.986 -0.985,1.9L-0.656,1.848C-0.018,1.745 0,1.589 0,0.345L0,-2.677Z" style="fill:white;fill-rule:nonzero;"/>
            </g>
            <g transform="matrix(1,0,0,1,135.72,21.0881)">
                <path d="M0,1.71C0,1.365 -0.068,1.21 -0.189,1.037C-0.448,0.674 -0.967,0.312 -1.641,0.312C-3.212,0.312 -4.024,1.676 -4.024,3.179C-4.024,4.751 -3.144,6.236 -1.45,6.236C-0.984,6.236 -0.396,6.028 -0.12,5.752C-0.017,5.648 0,5.39 0,5.113L0,1.71ZM1.278,4.302C1.278,5.666 1.296,6.305 1.779,6.305C1.97,6.305 2.263,6.219 2.522,6.132C2.644,6.167 2.66,6.599 2.505,6.685C1.779,6.789 0.709,7.048 0.225,7.237C0.121,7.237 0.035,7.186 0.035,7.1L0.035,6.806C0.035,6.547 0.035,6.34 0,6.271L-0.068,6.271C-0.829,6.789 -1.416,7.065 -2.245,7.065C-4.162,7.065 -5.44,5.563 -5.44,3.749C-5.44,1.33 -3.609,-0.224 -1.261,-0.224C-0.673,-0.224 -0.293,-0.138 -0.104,-0.068C-0.017,-0.068 0,-0.172 0,-0.311L0,-2.919C0,-3.937 -0.017,-4.041 -0.535,-4.352L-0.708,-4.456C-0.794,-4.508 -0.794,-4.75 -0.708,-4.802C-0.276,-4.939 0.536,-5.198 1.157,-5.527C1.227,-5.527 1.296,-5.492 1.33,-5.423C1.313,-4.905 1.278,-4.041 1.278,-3.281L1.278,4.302Z" style="fill:white;fill-rule:nonzero;"/>
            </g>
            <g transform="matrix(1,0,0,1,141.611,26.0479)">
                <path d="M0,-3.077C1.278,-3.077 1.658,-3.145 1.797,-3.25C1.849,-3.284 1.9,-3.353 1.9,-3.578C1.9,-4.061 1.572,-4.666 0.57,-4.666C-0.449,-4.666 -1.33,-3.733 -1.347,-3.163C-1.347,-3.129 -1.347,-3.077 -1.227,-3.077L0,-3.077ZM-1.07,-2.558C-1.52,-2.558 -1.537,-2.524 -1.537,-2.092C-1.537,-0.348 -0.518,1.138 1.33,1.138C1.9,1.138 2.384,0.965 2.919,0.291C3.092,0.239 3.213,0.344 3.23,0.499C2.66,1.673 1.417,2.106 0.519,2.106C-0.604,2.106 -1.485,1.621 -1.986,0.965C-2.504,0.291 -2.712,-0.52 -2.712,-1.28C-2.712,-3.405 -1.312,-5.183 0.761,-5.183C2.246,-5.183 3.213,-4.165 3.213,-3.129C3.213,-2.887 3.179,-2.749 3.144,-2.68C3.092,-2.576 2.851,-2.558 2.125,-2.558L-1.07,-2.558Z" style="fill:white;fill-rule:nonzero;"/>
            </g>
            <g transform="matrix(1,0,0,1,147.752,26.7352)">
                <path d="M0,-0.568C0,-0.015 0.173,0.192 0.519,0.468C0.863,0.727 1.399,0.848 1.762,0.848C3.179,0.848 4.008,-0.464 4.008,-2.261C4.008,-3.643 3.23,-5.043 1.676,-5.043C0.933,-5.043 0.397,-4.765 0.207,-4.558C0.052,-4.369 0,-4.109 0,-3.54L0,-0.568ZM-1.278,-3.781C-1.278,-4.455 -1.278,-4.542 -1.744,-4.852L-1.9,-4.956C-1.969,-5.025 -1.969,-5.214 -1.883,-5.266C-1.434,-5.457 -0.622,-5.871 -0.173,-6.2C-0.069,-6.2 0,-6.165 0.034,-6.079C0,-5.767 -0.034,-5.508 -0.034,-5.284C-0.034,-5.163 0,-5.059 0.121,-5.059C0.346,-5.163 1.434,-5.871 2.539,-5.871C4.284,-5.871 5.406,-4.455 5.406,-2.711C5.406,-0.309 3.645,1.418 1.192,1.418C0.881,1.418 0.397,1.383 0.242,1.349C0.087,1.383 0,1.47 0,1.832L0,3.646C0,4.872 0.034,5.028 0.656,5.115L1.33,5.201C1.451,5.287 1.416,5.58 1.296,5.632C0.467,5.598 -0.034,5.58 -0.639,5.58C-1.261,5.58 -1.779,5.598 -2.263,5.632C-2.384,5.58 -2.418,5.287 -2.297,5.201L-1.935,5.149C-1.295,5.063 -1.278,4.89 -1.278,3.646L-1.278,-3.781Z" style="fill:white;fill-rule:nonzero;"/>
            </g>
            <g transform="matrix(1,0,0,1,156.675,21.6412)">
                <path d="M0,5.735C0.346,5.735 0.881,5.475 1.054,5.303C1.261,5.095 1.261,4.854 1.278,4.491L1.312,3.472C1.312,3.282 1.244,3.248 1.14,3.248C1.036,3.248 0.743,3.316 0.432,3.421C-0.587,3.765 -1.088,4.025 -1.088,4.698C-1.088,4.992 -0.881,5.735 0,5.735M1.071,2.695C1.33,2.608 1.364,2.453 1.364,2.194L1.382,1.399C1.399,0.76 1.192,-0.104 0.121,-0.104C-0.362,-0.104 -0.95,0.138 -0.984,0.673C-1.002,0.95 -1.019,1.157 -1.157,1.261C-1.416,1.468 -1.883,1.589 -2.142,1.589C-2.297,1.589 -2.384,1.503 -2.384,1.347C-2.384,0.449 -0.432,-0.777 0.829,-0.777C2.073,-0.777 2.678,-0.052 2.626,1.244L2.521,4.25C2.487,5.044 2.643,5.752 3.316,5.752C3.489,5.752 3.645,5.7 3.748,5.648C3.835,5.596 3.921,5.527 3.973,5.527C4.042,5.527 4.094,5.631 4.094,5.752C4.094,5.839 3.489,6.512 2.643,6.512C2.229,6.512 1.813,6.356 1.521,5.976C1.451,5.873 1.348,5.735 1.244,5.735C1.123,5.735 0.916,5.89 0.57,6.08C0.19,6.288 -0.189,6.512 -0.674,6.512C-1.175,6.512 -1.589,6.374 -1.883,6.115C-2.211,5.821 -2.418,5.389 -2.418,4.906C-2.418,4.232 -2.09,3.835 -0.984,3.437L1.071,2.695Z" style="fill:white;fill-rule:nonzero;"/>
            </g>
            <g transform="matrix(1,0,0,1,163.249,26.7352)">
                <path d="M0,-0.568C0,-0.015 0.172,0.192 0.518,0.468C0.863,0.727 1.398,0.848 1.762,0.848C3.178,0.848 4.007,-0.464 4.007,-2.261C4.007,-3.643 3.229,-5.043 1.675,-5.043C0.933,-5.043 0.396,-4.765 0.207,-4.558C0.052,-4.369 0,-4.109 0,-3.54L0,-0.568ZM-1.278,-3.781C-1.278,-4.455 -1.278,-4.542 -1.745,-4.852L-1.9,-4.956C-1.97,-5.025 -1.97,-5.214 -1.883,-5.266C-1.434,-5.457 -0.622,-5.871 -0.173,-6.2C-0.069,-6.2 0,-6.165 0.034,-6.079C0,-5.767 -0.035,-5.508 -0.035,-5.284C-0.035,-5.163 0,-5.059 0.12,-5.059C0.345,-5.163 1.434,-5.871 2.539,-5.871C4.283,-5.871 5.406,-4.455 5.406,-2.711C5.406,-0.309 3.645,1.418 1.191,1.418C0.881,1.418 0.396,1.383 0.241,1.349C0.086,1.383 0,1.47 0,1.832L0,3.646C0,4.872 0.034,5.028 0.656,5.115L1.33,5.201C1.45,5.287 1.416,5.58 1.295,5.632C0.466,5.598 -0.035,5.58 -0.64,5.58C-1.262,5.58 -1.779,5.598 -2.263,5.632C-2.384,5.58 -2.419,5.287 -2.298,5.201L-1.935,5.149C-1.296,5.063 -1.278,4.89 -1.278,3.646L-1.278,-3.781Z" style="fill:white;fill-rule:nonzero;"/>
            </g>
            <g transform="matrix(1,0,0,1,171.685,26.7352)">
                <path d="M0,-0.568C0,-0.015 0.173,0.192 0.518,0.468C0.863,0.727 1.399,0.848 1.762,0.848C3.178,0.848 4.007,-0.464 4.007,-2.261C4.007,-3.643 3.229,-5.043 1.675,-5.043C0.933,-5.043 0.397,-4.765 0.207,-4.558C0.052,-4.369 0,-4.109 0,-3.54L0,-0.568ZM-1.278,-3.781C-1.278,-4.455 -1.278,-4.542 -1.745,-4.852L-1.9,-4.956C-1.97,-5.025 -1.97,-5.214 -1.883,-5.266C-1.434,-5.457 -0.622,-5.871 -0.173,-6.2C-0.069,-6.2 0,-6.165 0.034,-6.079C0,-5.767 -0.035,-5.508 -0.035,-5.284C-0.035,-5.163 0,-5.059 0.121,-5.059C0.346,-5.163 1.434,-5.871 2.539,-5.871C4.283,-5.871 5.406,-4.455 5.406,-2.711C5.406,-0.309 3.645,1.418 1.191,1.418C0.881,1.418 0.397,1.383 0.241,1.349C0.086,1.383 0,1.47 0,1.832L0,3.646C0,4.872 0.034,5.028 0.656,5.115L1.33,5.201C1.451,5.287 1.416,5.58 1.295,5.632C0.466,5.598 -0.035,5.58 -0.64,5.58C-1.261,5.58 -1.779,5.598 -2.263,5.632C-2.384,5.58 -2.419,5.287 -2.298,5.201L-1.935,5.149C-1.296,5.063 -1.278,4.89 -1.278,3.646L-1.278,-3.781Z" style="fill:white;fill-rule:nonzero;"/>
            </g>
            <g transform="matrix(1,0,0,1,180.954,26.0479)">
                <path d="M0,-3.077C1.278,-3.077 1.658,-3.145 1.797,-3.25C1.849,-3.284 1.9,-3.353 1.9,-3.578C1.9,-4.061 1.572,-4.666 0.57,-4.666C-0.449,-4.666 -1.33,-3.733 -1.348,-3.163C-1.348,-3.129 -1.348,-3.077 -1.227,-3.077L0,-3.077ZM-1.071,-2.558C-1.52,-2.558 -1.537,-2.524 -1.537,-2.092C-1.537,-0.348 -0.519,1.138 1.33,1.138C1.9,1.138 2.384,0.965 2.919,0.291C3.092,0.239 3.213,0.344 3.23,0.499C2.66,1.673 1.416,2.106 0.519,2.106C-0.604,2.106 -1.485,1.621 -1.986,0.965C-2.505,0.291 -2.712,-0.52 -2.712,-1.28C-2.712,-3.405 -1.312,-5.183 0.76,-5.183C2.245,-5.183 3.213,-4.165 3.213,-3.129C3.213,-2.887 3.178,-2.749 3.144,-2.68C3.092,-2.576 2.85,-2.558 2.125,-2.558L-1.071,-2.558Z" style="fill:white;fill-rule:nonzero;"/>
            </g>
            <g transform="matrix(1,0,0,1,185.989,25.6313)">
                <path d="M0,-2.677C0,-3.351 0,-3.438 -0.466,-3.748L-0.621,-3.852C-0.69,-3.921 -0.69,-4.111 -0.604,-4.162C-0.207,-4.301 0.709,-4.75 1.141,-5.009C1.227,-4.991 1.278,-4.957 1.278,-4.888L1.278,-3.886C1.278,-3.8 1.296,-3.748 1.33,-3.731C1.935,-4.232 2.592,-4.767 3.23,-4.767C3.662,-4.767 4.008,-4.491 4.008,-4.076C4.008,-3.506 3.541,-3.281 3.265,-3.281C3.092,-3.281 3.006,-3.333 2.885,-3.403C2.626,-3.575 2.367,-3.679 2.125,-3.679C1.849,-3.679 1.642,-3.524 1.503,-3.333C1.33,-3.092 1.278,-2.591 1.278,-2.003L1.278,0.345C1.278,1.589 1.313,1.797 1.97,1.848L2.592,1.9C2.712,1.986 2.678,2.28 2.557,2.332C1.745,2.298 1.244,2.28 0.64,2.28C0.018,2.28 -0.501,2.298 -0.949,2.332C-1.07,2.28 -1.105,1.986 -0.984,1.9L-0.656,1.848C-0.017,1.745 0,1.589 0,0.345L0,-2.677Z" style="fill:white;fill-rule:nonzero;"/>
            </g>
            <g transform="matrix(1,0,0,1,194.773,27.843)">
                <path d="M0,-6.668C0.156,-6.288 0.276,-5.735 0.276,-5.269C0.208,-5.148 -0.052,-5.113 -0.138,-5.217C-0.432,-5.978 -0.949,-6.479 -1.658,-6.479C-2.331,-6.479 -2.764,-6.046 -2.764,-5.425C-2.764,-4.716 -2.038,-4.336 -1.434,-3.991C-0.518,-3.473 0.328,-2.886 0.328,-1.659C0.328,-0.346 -0.881,0.311 -2.159,0.311C-2.971,0.311 -3.575,0.138 -4.007,-0.208C-4.146,-0.536 -4.249,-1.383 -4.214,-1.952C-4.128,-2.057 -3.903,-2.073 -3.817,-1.97C-3.523,-1.02 -2.971,-0.19 -1.986,-0.19C-1.364,-0.19 -0.829,-0.554 -0.829,-1.296C-0.829,-2.091 -1.52,-2.522 -2.159,-2.886C-3.16,-3.455 -3.869,-4.06 -3.869,-5.01C-3.869,-6.271 -2.832,-6.979 -1.52,-6.979C-0.794,-6.979 -0.155,-6.807 0,-6.668" style="fill:white;fill-rule:nonzero;"/>
            </g>
            <g transform="matrix(1,0,0,1,200.388,27.843)">
                <path d="M0,-6.668C0.156,-6.288 0.276,-5.735 0.276,-5.269C0.208,-5.148 -0.052,-5.113 -0.138,-5.217C-0.432,-5.978 -0.949,-6.479 -1.658,-6.479C-2.331,-6.479 -2.764,-6.046 -2.764,-5.425C-2.764,-4.716 -2.038,-4.336 -1.434,-3.991C-0.518,-3.473 0.328,-2.886 0.328,-1.659C0.328,-0.346 -0.881,0.311 -2.159,0.311C-2.971,0.311 -3.575,0.138 -4.007,-0.208C-4.146,-0.536 -4.249,-1.383 -4.214,-1.952C-4.128,-2.057 -3.903,-2.073 -3.817,-1.97C-3.523,-1.02 -2.971,-0.19 -1.986,-0.19C-1.364,-0.19 -0.829,-0.554 -0.829,-1.296C-0.829,-2.091 -1.52,-2.522 -2.159,-2.886C-3.16,-3.455 -3.869,-4.06 -3.869,-5.01C-3.869,-6.271 -2.832,-6.979 -1.52,-6.979C-0.794,-6.979 -0.155,-6.807 0,-6.668" style="fill:white;fill-rule:nonzero;"/>
            </g>
            <g transform="matrix(1,0,0,1,204.49,26.0479)">
                <path d="M0,-3.077C1.278,-3.077 1.658,-3.145 1.796,-3.25C1.849,-3.284 1.9,-3.353 1.9,-3.578C1.9,-4.061 1.572,-4.666 0.57,-4.666C-0.449,-4.666 -1.33,-3.733 -1.348,-3.163C-1.348,-3.129 -1.348,-3.077 -1.227,-3.077L0,-3.077ZM-1.071,-2.558C-1.521,-2.558 -1.537,-2.524 -1.537,-2.092C-1.537,-0.348 -0.519,1.138 1.33,1.138C1.9,1.138 2.384,0.965 2.919,0.291C3.092,0.239 3.213,0.344 3.23,0.499C2.66,1.673 1.416,2.106 0.519,2.106C-0.604,2.106 -1.485,1.621 -1.986,0.965C-2.505,0.291 -2.712,-0.52 -2.712,-1.28C-2.712,-3.405 -1.312,-5.183 0.76,-5.183C2.245,-5.183 3.213,-4.165 3.213,-3.129C3.213,-2.887 3.179,-2.749 3.144,-2.68C3.092,-2.576 2.85,-2.558 2.125,-2.558L-1.071,-2.558Z" style="fill:white;fill-rule:nonzero;"/>
            </g>
            <g transform="matrix(1,0,0,1,209.524,25.6313)">
                <path d="M0,-2.677C0,-3.351 0,-3.438 -0.466,-3.748L-0.621,-3.852C-0.69,-3.921 -0.69,-4.111 -0.604,-4.162C-0.207,-4.301 0.709,-4.75 1.141,-5.009C1.227,-4.991 1.278,-4.957 1.278,-4.888L1.278,-3.886C1.278,-3.8 1.296,-3.748 1.33,-3.731C1.935,-4.232 2.592,-4.767 3.23,-4.767C3.662,-4.767 4.008,-4.491 4.008,-4.076C4.008,-3.506 3.541,-3.281 3.265,-3.281C3.092,-3.281 3.006,-3.333 2.885,-3.403C2.626,-3.575 2.367,-3.679 2.125,-3.679C1.849,-3.679 1.642,-3.524 1.503,-3.333C1.33,-3.092 1.278,-2.591 1.278,-2.003L1.278,0.345C1.278,1.589 1.313,1.797 1.97,1.848L2.592,1.9C2.712,1.986 2.678,2.28 2.557,2.332C1.745,2.298 1.244,2.28 0.64,2.28C0.018,2.28 -0.501,2.298 -0.949,2.332C-1.07,2.28 -1.105,1.986 -0.984,1.9L-0.656,1.848C-0.017,1.745 0,1.589 0,0.345L0,-2.677Z" style="fill:white;fill-rule:nonzero;"/>
            </g>
            <g transform="matrix(1,0,0,1,215.525,26.4257)">
                <path d="M0,-3.61C-0.259,-4.249 -0.414,-4.801 -1.036,-4.888L-1.382,-4.94C-1.485,-5.078 -1.468,-5.32 -1.33,-5.372C-0.897,-5.338 -0.293,-5.32 0.294,-5.32C0.761,-5.32 1.105,-5.338 1.693,-5.372C1.814,-5.302 1.831,-5.026 1.71,-4.94L1.503,-4.905C0.968,-4.819 0.95,-4.733 1.123,-4.214C1.521,-3.022 2.021,-1.813 2.419,-0.916C2.574,-0.57 2.644,-0.415 2.695,-0.363C2.764,-0.415 2.885,-0.656 3.023,-1.019C3.248,-1.606 3.835,-3.109 4.008,-3.558C4.249,-4.163 4.318,-4.525 4.318,-4.629C4.318,-4.785 4.215,-4.853 4.008,-4.888L3.61,-4.94C3.507,-5.061 3.524,-5.302 3.645,-5.372C4.181,-5.338 4.612,-5.32 4.94,-5.32C5.372,-5.32 5.666,-5.338 6.149,-5.372C6.271,-5.302 6.288,-5.044 6.185,-4.94L5.925,-4.905C5.32,-4.819 5.165,-4.37 4.664,-3.403C4.422,-2.936 3.352,-0.431 3.075,0.277C2.902,0.708 2.729,1.106 2.505,1.693C2.471,1.744 2.401,1.762 2.332,1.762C2.246,1.762 2.159,1.744 2.107,1.693C1.97,1.209 1.71,0.536 1.451,-0.103L0,-3.61Z" style="fill:white;fill-rule:nonzero;"/>
            </g>
            <g transform="matrix(1,0,0,1,224.839,27.0655)">
                <path d="M0,-9.034C0,-8.412 -0.432,-8.137 -0.915,-8.137C-1.45,-8.137 -1.796,-8.533 -1.796,-9C-1.796,-9.57 -1.382,-9.932 -0.863,-9.932C-0.345,-9.932 0,-9.517 0,-9.034M-1.434,-4.111C-1.434,-4.785 -1.434,-4.872 -1.899,-5.182L-2.055,-5.286C-2.124,-5.355 -2.124,-5.545 -2.038,-5.596C-1.641,-5.735 -0.656,-6.184 -0.259,-6.443C-0.172,-6.443 -0.104,-6.409 -0.086,-6.34C-0.12,-5.735 -0.155,-4.906 -0.155,-4.198L-0.155,-1.089C-0.155,0.154 -0.12,0.327 0.501,0.414L0.864,0.466C0.985,0.552 0.95,0.846 0.829,0.898C0.312,0.863 -0.189,0.846 -0.794,0.846C-1.416,0.846 -1.935,0.863 -2.418,0.898C-2.539,0.846 -2.573,0.552 -2.452,0.466L-2.09,0.414C-1.45,0.327 -1.434,0.154 -1.434,-1.089L-1.434,-4.111Z" style="fill:white;fill-rule:nonzero;"/>
            </g>
            <g transform="matrix(1,0,0,1,232.194,27.8604)">
                <path d="M0,-6.703C0.139,-6.582 0.26,-6.306 0.26,-6.012C0.26,-5.701 0.087,-5.373 -0.121,-5.373C-0.207,-5.373 -0.293,-5.407 -0.362,-5.494C-0.742,-5.96 -1.382,-6.409 -2.09,-6.409C-3.299,-6.409 -4.474,-5.459 -4.474,-3.628C-4.474,-2.281 -3.541,-0.675 -1.692,-0.675C-0.69,-0.675 -0.173,-1.124 0.225,-1.711C0.363,-1.746 0.519,-1.625 0.536,-1.469C-0.052,-0.191 -1.347,0.293 -2.349,0.293C-3.265,0.293 -4.11,-0.001 -4.715,-0.588C-5.319,-1.176 -5.717,-2.021 -5.717,-3.144C-5.717,-5.01 -4.404,-6.996 -1.537,-6.996C-1.14,-6.996 -0.466,-6.91 0,-6.703" style="fill:white;fill-rule:nonzero;"/>
            </g>
            <g transform="matrix(1,0,0,1,236.206,26.0479)">
                <path d="M0,-3.077C1.278,-3.077 1.658,-3.145 1.797,-3.25C1.849,-3.284 1.9,-3.353 1.9,-3.578C1.9,-4.061 1.572,-4.666 0.57,-4.666C-0.449,-4.666 -1.33,-3.733 -1.348,-3.163C-1.348,-3.129 -1.348,-3.077 -1.227,-3.077L0,-3.077ZM-1.071,-2.558C-1.52,-2.558 -1.537,-2.524 -1.537,-2.092C-1.537,-0.348 -0.519,1.138 1.33,1.138C1.9,1.138 2.384,0.965 2.919,0.291C3.092,0.239 3.213,0.344 3.23,0.499C2.66,1.673 1.416,2.106 0.519,2.106C-0.604,2.106 -1.485,1.621 -1.986,0.965C-2.505,0.291 -2.712,-0.52 -2.712,-1.28C-2.712,-3.405 -1.312,-5.183 0.76,-5.183C2.245,-5.183 3.213,-4.165 3.213,-3.129C3.213,-2.887 3.178,-2.749 3.144,-2.68C3.092,-2.576 2.85,-2.558 2.125,-2.558L-1.071,-2.558Z" style="fill:white;fill-rule:nonzero;"/>
            </g>
        </g>
    </g>
</svg>
