<svg xmlns="http://www.w3.org/2000/svg" viewBox="0 0 48 48" width="48" height="48"><title>contact</title><g class="nc-icon-wrapper" fill="#cdcfd2"><path data-color="color-2" d="M34.316,33.051c-2.722-0.908-4.045-3.282-4.691-5.35C27.921,28.525,26.017,29,24,29 c-2.017,0-3.921-0.475-5.626-1.299c-0.646,2.068-1.968,4.443-4.69,5.35C7.838,35,3,37.319,3,46c0,0.552,0.448,1,1,1h40 c0.552,0,1-0.448,1-1C45,37.319,40.162,35,34.316,33.051z"/> <path fill="#cdcfd2" d="M24,1c-6.065,0-11,4.935-11,11v4c0,6.065,4.935,11,11,11s11-4.935,11-11v-4C35,5.935,30.065,1,24,1z"/></g></svg>